<svg width="600" height="261" viewBox="0 0 600 261" fill="none" xmlns="http://www.w3.org/2000/svg">
<rect width="600" height="261" fill="white"/>
<rect x="188" y="81" width="60" height="46" rx="4" fill="#2B2B2B"/>
<rect x="213" y="27" width="60" height="46" rx="4" fill="#2B2B2B"/>
<rect x="209" y="135" width="60" height="46" rx="4" fill="#2B2B2B"/>
<rect x="188" y="189" width="60" height="46" rx="4" fill="#2B2B2B"/>
<path d="M273.68 107.508H268.078V120H261.047V85.875H273.727C277.758 85.875 280.867 86.7734 283.055 88.5703C285.242 90.3672 286.336 92.9062 286.336 96.1875C286.336 98.5156 285.828 100.461 284.812 102.023C283.812 103.57 282.289 104.805 280.242 105.727L287.625 119.672V120H280.078L273.68 107.508ZM268.078 101.812H273.75C275.516 101.812 276.883 101.367 277.852 100.477C278.82 99.5703 279.305 98.3281 279.305 96.75C279.305 95.1406 278.844 93.875 277.922 92.9531C277.016 92.0312 275.617 91.5703 273.727 91.5703H268.078V101.812ZM302.93 120.469C299.211 120.469 296.18 119.328 293.836 117.047C291.508 114.766 290.344 111.727 290.344 107.93V107.273C290.344 104.727 290.836 102.453 291.82 100.453C292.805 98.4375 294.195 96.8906 295.992 95.8125C297.805 94.7188 299.867 94.1719 302.18 94.1719C305.648 94.1719 308.375 95.2656 310.359 97.4531C312.359 99.6406 313.359 102.742 313.359 106.758V109.523H297.211C297.43 111.18 298.086 112.508 299.18 113.508C300.289 114.508 301.688 115.008 303.375 115.008C305.984 115.008 308.023 114.062 309.492 112.172L312.82 115.898C311.805 117.336 310.43 118.461 308.695 119.273C306.961 120.07 305.039 120.469 302.93 120.469ZM302.156 99.6562C300.812 99.6562 299.719 100.109 298.875 101.016C298.047 101.922 297.516 103.219 297.281 104.906H306.703V104.367C306.672 102.867 306.266 101.711 305.484 100.898C304.703 100.07 303.594 99.6562 302.156 99.6562ZM331.922 120C331.609 119.391 331.383 118.633 331.242 117.727C329.602 119.555 327.469 120.469 324.844 120.469C322.359 120.469 320.297 119.75 318.656 118.312C317.031 116.875 316.219 115.062 316.219 112.875C316.219 110.188 317.211 108.125 319.195 106.688C321.195 105.25 324.078 104.523 327.844 104.508H330.961V103.055C330.961 101.883 330.656 100.945 330.047 100.242C329.453 99.5391 328.508 99.1875 327.211 99.1875C326.07 99.1875 325.172 99.4609 324.516 100.008C323.875 100.555 323.555 101.305 323.555 102.258H316.781C316.781 100.789 317.234 99.4297 318.141 98.1797C319.047 96.9297 320.328 95.9531 321.984 95.25C323.641 94.5312 325.5 94.1719 327.562 94.1719C330.688 94.1719 333.164 94.9609 334.992 96.5391C336.836 98.1016 337.758 100.305 337.758 103.148V114.141C337.773 116.547 338.109 118.367 338.766 119.602V120H331.922ZM326.32 115.289C327.32 115.289 328.242 115.07 329.086 114.633C329.93 114.18 330.555 113.578 330.961 112.828V108.469H328.43C325.039 108.469 323.234 109.641 323.016 111.984L322.992 112.383C322.992 113.227 323.289 113.922 323.883 114.469C324.477 115.016 325.289 115.289 326.32 115.289ZM353.508 115.008C354.758 115.008 355.773 114.664 356.555 113.977C357.336 113.289 357.742 112.375 357.773 111.234H364.125C364.109 112.953 363.641 114.531 362.719 115.969C361.797 117.391 360.531 118.5 358.922 119.297C357.328 120.078 355.562 120.469 353.625 120.469C350 120.469 347.141 119.32 345.047 117.023C342.953 114.711 341.906 111.523 341.906 107.461V107.016C341.906 103.109 342.945 99.9922 345.023 97.6641C347.102 95.3359 349.953 94.1719 353.578 94.1719C356.75 94.1719 359.289 95.0781 361.195 96.8906C363.117 98.6875 364.094 101.086 364.125 104.086H357.773C357.742 102.773 357.336 101.711 356.555 100.898C355.773 100.07 354.742 99.6562 353.461 99.6562C351.883 99.6562 350.688 100.234 349.875 101.391C349.078 102.531 348.68 104.391 348.68 106.969V107.672C348.68 110.281 349.078 112.156 349.875 113.297C350.672 114.438 351.883 115.008 353.508 115.008ZM376.102 88.4062V94.6406H380.438V99.6094H376.102V112.266C376.102 113.203 376.281 113.875 376.641 114.281C377 114.688 377.688 114.891 378.703 114.891C379.453 114.891 380.117 114.836 380.695 114.727V119.859C379.367 120.266 378 120.469 376.594 120.469C371.844 120.469 369.422 118.07 369.328 113.273V99.6094H365.625V94.6406H369.328V88.4062H376.102Z" fill="#2B2B2B"/>
<path d="M299.742 164.047C299.742 162.719 299.273 161.703 298.336 161C297.398 160.281 295.711 159.531 293.273 158.75C290.836 157.953 288.906 157.172 287.484 156.406C283.609 154.312 281.672 151.492 281.672 147.945C281.672 146.102 282.188 144.461 283.219 143.023C284.266 141.57 285.758 140.438 287.695 139.625C289.648 138.812 291.836 138.406 294.258 138.406C296.695 138.406 298.867 138.852 300.773 139.742C302.68 140.617 304.156 141.859 305.203 143.469C306.266 145.078 306.797 146.906 306.797 148.953H299.766C299.766 147.391 299.273 146.18 298.289 145.32C297.305 144.445 295.922 144.008 294.141 144.008C292.422 144.008 291.086 144.375 290.133 145.109C289.18 145.828 288.703 146.781 288.703 147.969C288.703 149.078 289.258 150.008 290.367 150.758C291.492 151.508 293.141 152.211 295.312 152.867C299.312 154.07 302.227 155.562 304.055 157.344C305.883 159.125 306.797 161.344 306.797 164C306.797 166.953 305.68 169.273 303.445 170.961C301.211 172.633 298.203 173.469 294.422 173.469C291.797 173.469 289.406 172.992 287.25 172.039C285.094 171.07 283.445 169.75 282.305 168.078C281.18 166.406 280.617 164.469 280.617 162.266H287.672C287.672 166.031 289.922 167.914 294.422 167.914C296.094 167.914 297.398 167.578 298.336 166.906C299.273 166.219 299.742 165.266 299.742 164.047ZM333.961 160.555C333.961 164.461 333.07 167.594 331.289 169.953C329.523 172.297 327.133 173.469 324.117 173.469C321.555 173.469 319.484 172.578 317.906 170.797V182.75H311.133V147.641H317.414L317.648 150.125C319.289 148.156 321.43 147.172 324.07 147.172C327.195 147.172 329.625 148.328 331.359 150.641C333.094 152.953 333.961 156.141 333.961 160.203V160.555ZM327.188 160.062C327.188 157.703 326.766 155.883 325.922 154.602C325.094 153.32 323.883 152.68 322.289 152.68C320.164 152.68 318.703 153.492 317.906 155.117V165.5C318.734 167.172 320.211 168.008 322.336 168.008C325.57 168.008 327.188 165.359 327.188 160.062ZM345.328 173H338.531V147.641H345.328V173ZM338.133 141.078C338.133 140.062 338.469 139.227 339.141 138.57C339.828 137.914 340.758 137.586 341.93 137.586C343.086 137.586 344.008 137.914 344.695 138.57C345.383 139.227 345.727 140.062 345.727 141.078C345.727 142.109 345.375 142.953 344.672 143.609C343.984 144.266 343.07 144.594 341.93 144.594C340.789 144.594 339.867 144.266 339.164 143.609C338.477 142.953 338.133 142.109 338.133 141.078ZM357.164 147.641L357.375 150.57C359.188 148.305 361.617 147.172 364.664 147.172C367.352 147.172 369.352 147.961 370.664 149.539C371.977 151.117 372.648 153.477 372.68 156.617V173H365.906V156.781C365.906 155.344 365.594 154.305 364.969 153.664C364.344 153.008 363.305 152.68 361.852 152.68C359.945 152.68 358.516 153.492 357.562 155.117V173H350.789V147.641H357.164ZM389.508 173.469C385.789 173.469 382.758 172.328 380.414 170.047C378.086 167.766 376.922 164.727 376.922 160.93V160.273C376.922 157.727 377.414 155.453 378.398 153.453C379.383 151.438 380.773 149.891 382.57 148.812C384.383 147.719 386.445 147.172 388.758 147.172C392.227 147.172 394.953 148.266 396.938 150.453C398.938 152.641 399.938 155.742 399.938 159.758V162.523H383.789C384.008 164.18 384.664 165.508 385.758 166.508C386.867 167.508 388.266 168.008 389.953 168.008C392.562 168.008 394.602 167.062 396.07 165.172L399.398 168.898C398.383 170.336 397.008 171.461 395.273 172.273C393.539 173.07 391.617 173.469 389.508 173.469ZM388.734 152.656C387.391 152.656 386.297 153.109 385.453 154.016C384.625 154.922 384.094 156.219 383.859 157.906H393.281V157.367C393.25 155.867 392.844 154.711 392.062 153.898C391.281 153.07 390.172 152.656 388.734 152.656Z" fill="#2B2B2B"/>
</svg>
